# xmcd CD database file
#
# Track frame offsets:
#	150
#	20203
#	44373
#	56136
#	68163
#	83049
#	96987
#	117508
#	132104
#	153607
#	169837
#	191769
#	205895
#
# Disc length: 2922 seconds
#
# Revision: 0
# Processed by: cddbd v1.5.2PL0 Copyright (c) Steve Scherf et al.
# Submitted via: CDex 1.70beta2
#
DISCID=bf0b680d
DTITLE=Eva Cortes - Como Aqua Rentre Los Dedos 
DYEAR=1900
DGENRE=Jazz
TTITLE0=Te Me Escapas
TTITLE1=A Tres Minutos
TTITLE2=Gotas De Lluvia
TTITLE3=Volver A Empezar
TTITLE4=Sentada Frente Al Vacio
TTITLE5=Ahora Que Se
TTITLE6=Azul
TTITLE7=Pero Te Vas
TTITLE8=Sueno de bolero
TTITLE9=Quisiera
TTITLE10=No Sabes Lo Que Es El Amor
TTITLE11=Esta Locura
TTITLE12=La Vie En Rose
EXTD=
EXTT0=
EXTT1=
EXTT2=
EXTT3=
EXTT4=
EXTT5=
EXTT6=
EXTT7=
EXTT8=
EXTT9=
EXTT10=
EXTT11=
EXTT12=
PLAYORDER=
